<svg 
  stroke="currentColor" 
  fill="white" 
  stroke-width="0" 
  viewBox="0 0 62 62" 
  height="60" 
  width="60"
  className="w-6 h-6 md:w-5 md:h-5 text-white"
  xmlns="http://www.w3.org/2000/svg"
>
  <!-- Bigger background rectangle with rounded corners on all 4 sides -->
  <rect x="1" y="1" width="60" height="60" rx="12" ry="12" fill="black"/>
  
  <!-- The icon path (centered and scaled) with rounded corners -->
  <g transform="translate(12, 12) scale(1.5)">
    <path d="m19.684 5.821-9-3.272A1.998 1.998 0 0 0 8 4.428v6.129A3.953 3.953 0 0 0 6 10c-2.206 0-4 1.794-4 4s1.794 4 4 4s4-1.794 4-4V4.428L19 7.7v6.856A3.962 3.962 0 0 0 17 14c-2.206 0-4 1.794-4 4s1.794 4 4 4s4-1.794 4-4V7.7c0-.838-.529-1.594-1.316-1.879zM6 16c-1.103 0-2-.897-2-2s.897-2 2-2s2 .897 2 2-.897 2-2 2zm11 4c-1.103 0-2-.897-2-2s.897-2 2-2s2 .897 2 2-.897 2-2 2z" 
          stroke-linejoin="round" 
          stroke-linecap="round"/>
  </g>
</svg>